<?xml version="1.0" standalone="no"?>
<!DOCTYPE svg PUBLIC "-//W3C//DTD SVG 20010904//EN"
 "http://www.w3.org/TR/2001/REC-SVG-20010904/DTD/svg10.dtd">
<svg version="1.0" xmlns="http://www.w3.org/2000/svg"
 width="500.000000pt" height="500.000000pt" viewBox="0 0 500.000000 500.000000"
 preserveAspectRatio="xMidYMid meet">
<metadata>
Created by potrace 1.11, written by Peter Selinger 2001-2013
</metadata>
<g transform="translate(0.000000,500.000000) scale(0.100000,-0.100000)"
fill="#000000" stroke="none">
<path d="M2385 4168 c-86 -44 -128 -109 -128 -198 0 -80 26 -132 95 -194 71
-65 72 -42 -13 -328 -93 -314 -177 -505 -263 -604 -55 -62 -98 -84 -164 -84
-106 0 -212 71 -401 271 l-124 130 38 55 c135 195 -57 430 -270 330 -180 -83
-180 -319 0 -402 27 -13 63 -24 79 -24 l28 0 -4 -167 c-5 -181 -23 -284 -63
-363 -90 -178 -251 -160 -627 68 l-127 77 6 76 c8 112 0 143 -56 199 -36 36
-59 50 -99 60 -102 24 -194 -11 -249 -94 -29 -42 -33 -57 -33 -113 0 -78 18
-120 72 -168 52 -48 80 -57 166 -58 l74 0 24 -51 c21 -45 111 -271 321 -808
73 -185 55 -163 198 -246 252 -146 631 -295 860 -338 11 -2 40 -8 65 -14 79
-17 271 -46 370 -55 36 -3 85 -8 110 -11 111 -12 475 -5 590 11 14 2 54 7 90
10 36 4 88 11 115 16 28 6 68 12 90 15 135 19 397 94 590 170 207 81 500 237
512 273 3 9 42 106 88 216 45 110 106 268 135 350 30 83 82 227 116 320 l62
170 84 -4 c94 -3 139 12 190 66 84 88 73 239 -23 330 -42 40 -77 53 -137 53
-83 -1 -169 -57 -207 -135 -17 -38 -20 -124 -5 -175 9 -32 8 -37 -16 -56 -34
-28 -386 -224 -441 -246 -103 -42 -194 -33 -259 25 -68 59 -101 168 -110 369
-3 68 -7 140 -8 162 -3 38 -3 38 58 66 103 47 156 121 156 219 0 67 -42 146
-99 186 -39 28 -50 30 -126 30 -77 0 -87 -2 -127 -30 -105 -75 -125 -222 -44
-328 l28 -36 -83 -86 c-91 -94 -221 -208 -284 -247 -23 -14 -66 -34 -97 -43
-54 -17 -59 -17 -101 -1 -90 34 -177 162 -253 373 -18 51 -67 203 -109 339
l-76 248 44 38 c58 49 90 114 89 181 -1 66 -15 103 -55 145 -74 78 -181 102
-262 60z"/>
</g>
</svg>
